<svg xmlns="http://www.w3.org/2000/svg" viewBox="0 0 900.45 540.7"><defs><style>.cls-1,.cls-5{fill:none;stroke-miterlimit:10;}.cls-1{stroke:#000;}.cls-2{fill:#231f20;}.cls-3{font-size:34.43px;fill:#fff;font-family:Demode-Regular, Demode;letter-spacing:0.01em;}.cls-4{opacity:0.13;}.cls-5{stroke:#fff;}</style></defs><g id="Layer_2" data-name="Layer 2"><g id="Layer_2-2" data-name="Layer 2"><polygon class="cls-1" points="0.5 20.83 35.08 40.79 0.5 60.75 0.5 20.83"/><polygon class="cls-1" points="0.5 60.75 35.08 80.71 0.5 100.67 0.5 60.75"/><polygon class="cls-1" points="0.5 100.67 35.08 120.64 0.5 140.6 0.5 100.67"/><polygon class="cls-1" points="0.5 140.6 35.08 160.56 0.5 180.52 0.5 140.6"/><polygon class="cls-1" points="0.5 180.52 35.08 200.48 0.5 220.45 0.5 180.52"/><polygon class="cls-1" points="0.5 220.45 35.08 240.41 0.5 260.37 0.5 220.45"/><polygon class="cls-1" points="0.5 260.37 35.08 280.33 0.5 300.29 0.5 260.37"/><polygon class="cls-1" points="0.5 300.29 35.08 320.25 0.5 340.22 0.5 300.29"/><polygon class="cls-1" points="0.5 340.22 35.08 360.18 0.5 380.14 0.5 340.22"/><polygon class="cls-1" points="0.5 380.14 35.08 400.1 0.5 420.06 0.5 380.14"/><polygon class="cls-1" points="0.5 420.06 35.08 440.03 0.5 459.99 0.5 420.06"/><polygon class="cls-1" points="0.5 459.99 35.08 479.95 0.5 499.91 0.5 459.99"/><polygon class="cls-1" points="0.5 499.91 35.08 519.87 0.5 539.84 0.5 499.91"/><polygon class="cls-1" points="35.08 0.87 69.65 20.83 35.08 40.79 35.08 0.87"/><polygon class="cls-1" points="35.08 40.79 69.65 60.75 35.08 80.71 35.08 40.79"/><polygon class="cls-1" points="35.08 80.71 69.65 100.67 35.08 120.64 35.08 80.71"/><polygon class="cls-1" points="35.08 120.64 69.65 140.6 35.08 160.56 35.08 120.64"/><polygon class="cls-1" points="35.08 160.56 69.65 180.52 35.08 200.48 35.08 160.56"/><polygon class="cls-1" points="35.08 200.48 69.65 220.45 35.08 240.41 35.08 200.48"/><polygon class="cls-1" points="35.08 240.41 69.65 260.37 35.08 280.33 35.08 240.41"/><polygon class="cls-1" points="35.08 280.33 69.65 300.29 35.08 320.25 35.08 280.33"/><polygon class="cls-1" points="35.08 320.25 69.65 340.22 35.08 360.18 35.08 320.25"/><polygon class="cls-1" points="35.08 360.18 69.65 380.14 35.08 400.1 35.08 360.18"/><polygon class="cls-1" points="35.08 400.1 69.65 420.06 35.08 440.03 35.08 400.1"/><polygon class="cls-1" points="35.08 440.03 69.65 459.99 35.08 479.95 35.08 440.03"/><polygon class="cls-1" points="35.08 479.95 69.65 499.91 35.08 519.87 35.08 479.95"/><polygon class="cls-1" points="69.65 20.83 104.22 40.79 69.65 60.75 69.65 20.83"/><polygon class="cls-1" points="69.65 60.75 104.22 80.71 69.65 100.67 69.65 60.75"/><polygon class="cls-1" points="69.65 100.67 104.22 120.64 69.65 140.6 69.65 100.67"/><polygon class="cls-1" points="69.65 140.6 104.22 160.56 69.65 180.52 69.65 140.6"/><polygon class="cls-1" points="69.65 180.52 104.22 200.48 69.65 220.45 69.65 180.52"/><polygon class="cls-1" points="69.65 220.45 104.22 240.41 69.65 260.37 69.65 220.45"/><polygon class="cls-1" points="69.65 260.37 104.22 280.33 69.65 300.29 69.65 260.37"/><polygon class="cls-1" points="69.65 300.29 104.22 320.25 69.65 340.22 69.65 300.29"/><polygon class="cls-1" points="69.65 340.22 104.22 360.18 69.65 380.14 69.65 340.22"/><polygon class="cls-1" points="69.65 380.14 104.22 400.1 69.65 420.06 69.65 380.14"/><polygon class="cls-1" points="69.65 420.06 104.22 440.03 69.65 459.99 69.65 420.06"/><polygon class="cls-1" points="69.65 459.99 104.22 479.95 69.65 499.91 69.65 459.99"/><polygon class="cls-1" points="69.65 499.91 104.22 519.87 69.65 539.84 69.65 499.91"/><polygon class="cls-1" points="104.22 0.87 138.8 20.83 104.22 40.79 104.22 0.87"/><polygon class="cls-1" points="104.22 40.79 138.8 60.75 104.22 80.71 104.22 40.79"/><polygon class="cls-1" points="104.22 80.71 138.8 100.67 104.22 120.64 104.22 80.71"/><polygon class="cls-1" points="104.22 120.64 138.8 140.6 104.22 160.56 104.22 120.64"/><polygon class="cls-1" points="104.22 160.56 138.8 180.52 104.22 200.48 104.22 160.56"/><polygon class="cls-1" points="104.22 200.48 138.8 220.45 104.22 240.41 104.22 200.48"/><polygon class="cls-1" points="104.22 240.41 138.8 260.37 104.22 280.33 104.22 240.41"/><polygon class="cls-1" points="104.22 280.33 138.8 300.29 104.22 320.25 104.22 280.33"/><polygon class="cls-1" points="104.22 320.25 138.8 340.22 104.22 360.18 104.22 320.25"/><polygon class="cls-1" points="104.22 360.18 138.8 380.14 104.22 400.1 104.22 360.18"/><polygon class="cls-1" points="104.22 400.1 138.8 420.06 104.22 440.03 104.22 400.1"/><polygon class="cls-1" points="104.22 440.03 138.8 459.99 104.22 479.95 104.22 440.03"/><polygon class="cls-1" points="104.22 479.95 138.8 499.91 104.22 519.87 104.22 479.95"/><polygon class="cls-1" points="138.8 20.83 173.38 40.79 138.8 60.75 138.8 20.83"/><polygon class="cls-1" points="138.8 60.75 173.38 80.71 138.8 100.67 138.8 60.75"/><polygon class="cls-1" points="138.8 100.67 173.38 120.64 138.8 140.6 138.8 100.67"/><polygon class="cls-1" points="138.8 140.6 173.38 160.56 138.8 180.52 138.8 140.6"/><polygon class="cls-1" points="138.8 180.52 173.38 200.48 138.8 220.45 138.8 180.52"/><polygon class="cls-1" points="138.8 220.45 173.38 240.41 138.8 260.37 138.8 220.45"/><polygon class="cls-1" points="138.8 260.37 173.38 280.33 138.8 300.29 138.8 260.37"/><polygon class="cls-1" points="138.8 300.29 173.38 320.25 138.8 340.22 138.8 300.29"/><polygon class="cls-1" points="138.8 340.22 173.38 360.18 138.8 380.14 138.8 340.22"/><polygon class="cls-1" points="138.8 380.14 173.38 400.1 138.8 420.06 138.8 380.14"/><polygon class="cls-1" points="138.8 420.06 173.38 440.03 138.8 459.99 138.8 420.06"/><polygon class="cls-1" points="138.8 459.99 173.38 479.95 138.8 499.91 138.8 459.99"/><polygon class="cls-1" points="138.8 499.91 173.38 519.87 138.8 539.84 138.8 499.91"/><polygon class="cls-1" points="173.38 0.87 207.95 20.83 173.38 40.79 173.38 0.87"/><polygon class="cls-1" points="173.38 40.79 207.95 60.75 173.38 80.71 173.38 40.79"/><polygon class="cls-1" points="173.38 80.71 207.95 100.67 173.38 120.64 173.38 80.71"/><polygon class="cls-1" points="173.38 120.64 207.95 140.6 173.38 160.56 173.38 120.64"/><polygon class="cls-1" points="173.38 160.56 207.95 180.52 173.38 200.48 173.38 160.56"/><polygon class="cls-1" points="173.38 200.48 207.95 220.45 173.38 240.41 173.38 200.48"/><polygon class="cls-1" points="173.38 240.41 207.95 260.37 173.38 280.33 173.38 240.41"/><polygon class="cls-1" points="173.38 280.33 207.95 300.29 173.38 320.25 173.38 280.33"/><polygon class="cls-1" points="173.38 320.25 207.95 340.22 173.38 360.18 173.38 320.25"/><polygon class="cls-1" points="173.38 360.18 207.95 380.14 173.38 400.1 173.38 360.18"/><polygon class="cls-1" points="173.38 400.1 207.95 420.06 173.38 440.03 173.38 400.1"/><polygon class="cls-1" points="173.38 440.03 207.95 459.99 173.38 479.95 173.38 440.03"/><polygon class="cls-1" points="173.38 479.95 207.95 499.91 173.38 519.87 173.38 479.95"/><polygon class="cls-1" points="207.95 20.83 242.52 40.79 207.95 60.75 207.95 20.83"/><polygon class="cls-1" points="207.95 60.75 242.52 80.71 207.95 100.67 207.95 60.75"/><polygon class="cls-1" points="207.95 100.67 242.52 120.64 207.95 140.6 207.95 100.67"/><polygon class="cls-1" points="207.95 140.6 242.52 160.56 207.95 180.52 207.95 140.6"/><polygon class="cls-1" points="207.95 180.52 242.52 200.48 207.95 220.45 207.95 180.52"/><polygon class="cls-1" points="207.95 220.45 242.52 240.41 207.95 260.37 207.95 220.45"/><polygon class="cls-1" points="207.95 260.37 242.52 280.33 207.95 300.29 207.95 260.37"/><polygon class="cls-1" points="207.95 300.29 242.52 320.25 207.95 340.22 207.95 300.29"/><polygon class="cls-1" points="207.95 340.22 242.52 360.18 207.95 380.14 207.95 340.22"/><polygon class="cls-1" points="207.95 380.14 242.52 400.1 207.95 420.06 207.95 380.14"/><polygon class="cls-1" points="207.95 420.06 242.52 440.03 207.95 459.99 207.95 420.06"/><polygon class="cls-1" points="207.95 459.99 242.52 479.95 207.95 499.91 207.95 459.99"/><polygon class="cls-1" points="207.95 499.91 242.52 519.87 207.95 539.84 207.95 499.91"/><polygon class="cls-1" points="242.52 0.87 277.1 20.83 242.52 40.79 242.52 0.87"/><polygon class="cls-1" points="242.52 40.79 277.1 60.75 242.52 80.71 242.52 40.79"/><polygon class="cls-1" points="242.52 80.71 277.1 100.67 242.52 120.64 242.52 80.71"/><polygon class="cls-1" points="242.52 120.64 277.1 140.6 242.52 160.56 242.52 120.64"/><polygon class="cls-1" points="242.52 160.56 277.1 180.52 242.52 200.48 242.52 160.56"/><polygon class="cls-1" points="242.52 200.48 277.1 220.45 242.52 240.41 242.52 200.48"/><polygon class="cls-1" points="242.52 240.41 277.1 260.37 242.52 280.33 242.52 240.41"/><polygon class="cls-1" points="242.52 280.33 277.1 300.29 242.52 320.25 242.52 280.33"/><polygon class="cls-1" points="242.52 320.25 277.1 340.22 242.52 360.18 242.52 320.25"/><polygon class="cls-1" points="242.52 360.18 277.1 380.14 242.52 400.1 242.52 360.18"/><polygon class="cls-1" points="242.52 400.1 277.1 420.06 242.52 440.03 242.52 400.1"/><polygon class="cls-1" points="242.52 440.03 277.1 459.99 242.52 479.95 242.52 440.03"/><polygon class="cls-1" points="242.52 479.95 277.1 499.91 242.52 519.87 242.52 479.95"/><polygon class="cls-1" points="277.1 20.83 311.67 40.79 277.1 60.75 277.1 20.83"/><polygon class="cls-1" points="277.1 60.75 311.67 80.71 277.1 100.67 277.1 60.75"/><polygon class="cls-1" points="277.1 100.67 311.67 120.64 277.1 140.6 277.1 100.67"/><polygon class="cls-1" points="277.1 140.6 311.67 160.56 277.1 180.52 277.1 140.6"/><polygon class="cls-1" points="277.1 180.52 311.67 200.48 277.1 220.45 277.1 180.52"/><polygon class="cls-1" points="277.1 220.45 311.67 240.41 277.1 260.37 277.1 220.45"/><polygon class="cls-1" points="277.1 260.37 311.67 280.33 277.1 300.29 277.1 260.37"/><polygon class="cls-1" points="277.1 300.29 311.67 320.25 277.1 340.22 277.1 300.29"/><polygon class="cls-1" points="277.1 340.22 311.67 360.18 277.1 380.14 277.1 340.22"/><polygon class="cls-1" points="277.1 380.14 311.67 400.1 277.1 420.06 277.1 380.14"/><polygon class="cls-1" points="277.1 420.06 311.67 440.03 277.1 459.99 277.1 420.06"/><polygon class="cls-1" points="277.1 459.99 311.67 479.95 277.1 499.91 277.1 459.99"/><polygon class="cls-1" points="277.1 499.91 311.67 519.87 277.1 539.84 277.1 499.91"/><polygon class="cls-1" points="311.67 0.87 346.25 20.83 311.67 40.79 311.67 0.87"/><polygon class="cls-1" points="311.67 40.79 346.25 60.75 311.67 80.71 311.67 40.79"/><polygon class="cls-1" points="311.67 80.71 346.25 100.67 311.67 120.64 311.67 80.71"/><polygon class="cls-1" points="311.67 120.64 346.25 140.6 311.67 160.56 311.67 120.64"/><polygon class="cls-1" points="311.67 160.56 346.25 180.52 311.67 200.48 311.67 160.56"/><polygon class="cls-1" points="311.67 200.48 346.25 220.45 311.67 240.41 311.67 200.48"/><polygon class="cls-1" points="311.67 240.41 346.25 260.37 311.67 280.33 311.67 240.41"/><polygon class="cls-1" points="311.67 280.33 346.25 300.29 311.67 320.25 311.67 280.33"/><polygon class="cls-1" points="311.67 320.25 346.25 340.22 311.67 360.18 311.67 320.25"/><polygon class="cls-1" points="311.67 360.18 346.25 380.14 311.67 400.1 311.67 360.18"/><polygon class="cls-1" points="311.67 400.1 346.25 420.06 311.67 440.03 311.67 400.1"/><polygon class="cls-1" points="311.67 440.03 346.25 459.99 311.67 479.95 311.67 440.03"/><polygon class="cls-1" points="311.67 479.95 346.25 499.91 311.67 519.87 311.67 479.95"/><polygon class="cls-1" points="346.25 20.83 380.82 40.79 346.25 60.75 346.25 20.83"/><polygon class="cls-1" points="346.25 60.75 380.82 80.71 346.25 100.67 346.25 60.75"/><polygon class="cls-1" points="346.25 100.67 380.82 120.64 346.25 140.6 346.25 100.67"/><polygon class="cls-1" points="346.25 140.6 380.82 160.56 346.25 180.52 346.25 140.6"/><polygon class="cls-1" points="346.25 180.52 380.82 200.48 346.25 220.45 346.25 180.52"/><polygon class="cls-1" points="346.25 220.45 380.82 240.41 346.25 260.37 346.25 220.45"/><polygon class="cls-1" points="346.25 260.37 380.82 280.33 346.25 300.29 346.25 260.37"/><polygon class="cls-1" points="346.25 300.29 380.82 320.25 346.25 340.22 346.25 300.29"/><polygon class="cls-1" points="346.25 340.22 380.82 360.18 346.25 380.14 346.25 340.22"/><polygon class="cls-1" points="346.25 380.14 380.82 400.1 346.25 420.06 346.25 380.14"/><polygon class="cls-1" points="346.25 420.06 380.82 440.03 346.25 459.99 346.25 420.06"/><polygon class="cls-1" points="346.25 459.99 380.82 479.95 346.25 499.91 346.25 459.99"/><polygon class="cls-1" points="346.25 499.91 380.82 519.87 346.25 539.84 346.25 499.91"/><polygon class="cls-1" points="380.82 0.87 415.4 20.83 380.82 40.79 380.82 0.87"/><polygon class="cls-1" points="380.82 40.79 415.4 60.75 380.82 80.71 380.82 40.79"/><polygon class="cls-1" points="380.82 80.71 415.4 100.67 380.82 120.64 380.82 80.71"/><polygon class="cls-1" points="380.82 120.64 415.4 140.6 380.82 160.56 380.82 120.64"/><polygon class="cls-1" points="380.82 160.56 415.4 180.52 380.82 200.48 380.82 160.56"/><polygon class="cls-1" points="380.82 200.48 415.4 220.45 380.82 240.41 380.82 200.48"/><polygon class="cls-1" points="380.82 240.41 415.4 260.37 380.82 280.33 380.82 240.41"/><polygon class="cls-1" points="380.82 280.33 415.4 300.29 380.82 320.25 380.82 280.33"/><polygon class="cls-1" points="380.82 320.25 415.4 340.22 380.82 360.18 380.82 320.25"/><polygon class="cls-1" points="380.82 360.18 415.4 380.14 380.82 400.1 380.82 360.18"/><polygon class="cls-1" points="380.82 400.1 415.4 420.06 380.82 440.03 380.82 400.1"/><polygon class="cls-1" points="380.82 440.03 415.4 459.99 380.82 479.95 380.82 440.03"/><polygon class="cls-1" points="380.82 479.95 415.4 499.91 380.82 519.87 380.82 479.95"/><polygon class="cls-1" points="415.4 20.83 449.97 40.79 415.4 60.75 415.4 20.83"/><polygon class="cls-1" points="415.4 60.75 449.97 80.71 415.4 100.67 415.4 60.75"/><polygon class="cls-1" points="415.4 100.67 449.97 120.64 415.4 140.6 415.4 100.67"/><polygon class="cls-1" points="415.4 140.6 449.97 160.56 415.4 180.52 415.4 140.6"/><polygon class="cls-1" points="415.4 180.52 449.97 200.48 415.4 220.45 415.4 180.52"/><polygon class="cls-1" points="415.4 220.45 449.97 240.41 415.4 260.37 415.4 220.45"/><polygon class="cls-1" points="415.4 260.37 449.97 280.33 415.4 300.29 415.4 260.37"/><polygon class="cls-1" points="415.4 300.29 449.97 320.25 415.4 340.22 415.4 300.29"/><polygon class="cls-1" points="415.4 340.22 449.97 360.18 415.4 380.14 415.4 340.22"/><polygon class="cls-1" points="415.4 380.14 449.97 400.1 415.4 420.06 415.4 380.14"/><polygon class="cls-1" points="415.4 420.06 449.97 440.03 415.4 459.99 415.4 420.06"/><polygon class="cls-1" points="415.4 459.99 449.97 479.95 415.4 499.91 415.4 459.99"/><polygon class="cls-1" points="415.4 499.91 449.97 519.87 415.4 539.84 415.4 499.91"/><polygon class="cls-1" points="449.97 0.87 484.55 20.83 449.97 40.79 449.97 0.87"/><polygon class="cls-1" points="449.97 40.79 484.55 60.75 449.97 80.71 449.97 40.79"/><polygon class="cls-1" points="449.97 80.71 484.55 100.67 449.97 120.64 449.97 80.71"/><polygon class="cls-1" points="449.97 120.64 484.55 140.6 449.97 160.56 449.97 120.64"/><polygon class="cls-1" points="449.97 160.56 484.55 180.52 449.97 200.48 449.97 160.56"/><polygon class="cls-1" points="449.97 200.48 484.55 220.45 449.97 240.41 449.97 200.48"/><polygon class="cls-1" points="449.97 240.41 484.55 260.37 449.97 280.33 449.97 240.41"/><polygon class="cls-1" points="449.97 280.33 484.55 300.29 449.97 320.25 449.97 280.33"/><polygon class="cls-1" points="449.97 320.25 484.55 340.22 449.97 360.18 449.97 320.25"/><polygon class="cls-1" points="449.97 360.18 484.55 380.14 449.97 400.1 449.97 360.18"/><polygon class="cls-1" points="449.97 400.1 484.55 420.06 449.97 440.03 449.97 400.1"/><polygon class="cls-1" points="449.97 440.03 484.55 459.99 449.97 479.95 449.97 440.03"/><polygon class="cls-1" points="449.97 479.95 484.55 499.91 449.97 519.87 449.97 479.95"/><polygon class="cls-1" points="484.55 20.83 519.12 40.79 484.55 60.75 484.55 20.83"/><polygon class="cls-1" points="484.55 60.75 519.12 80.71 484.55 100.67 484.55 60.75"/><polygon class="cls-1" points="484.55 100.67 519.12 120.64 484.55 140.6 484.55 100.67"/><polygon class="cls-1" points="484.55 140.6 519.12 160.56 484.55 180.52 484.55 140.6"/><polygon class="cls-1" points="484.55 180.52 519.12 200.48 484.55 220.45 484.55 180.52"/><polygon class="cls-1" points="484.55 220.45 519.12 240.41 484.55 260.37 484.55 220.45"/><polygon class="cls-1" points="484.55 260.37 519.12 280.33 484.55 300.29 484.55 260.37"/><polygon class="cls-1" points="484.55 300.29 519.12 320.25 484.55 340.22 484.55 300.29"/><polygon class="cls-1" points="484.55 340.22 519.12 360.18 484.55 380.14 484.55 340.22"/><polygon class="cls-1" points="484.55 380.14 519.12 400.1 484.55 420.06 484.55 380.14"/><polygon class="cls-1" points="484.55 420.06 519.12 440.03 484.55 459.99 484.55 420.06"/><polygon class="cls-1" points="484.55 459.99 519.12 479.95 484.55 499.91 484.55 459.99"/><polygon class="cls-1" points="484.55 499.91 519.12 519.87 484.55 539.84 484.55 499.91"/><polygon class="cls-1" points="519.12 0.87 553.7 20.83 519.12 40.79 519.12 0.87"/><polygon class="cls-1" points="519.12 40.79 553.7 60.75 519.12 80.71 519.12 40.79"/><polygon class="cls-1" points="519.12 80.71 553.7 100.67 519.12 120.64 519.12 80.71"/><polygon class="cls-1" points="519.12 120.64 553.7 140.6 519.12 160.56 519.12 120.64"/><polygon class="cls-1" points="519.12 160.56 553.7 180.52 519.12 200.48 519.12 160.56"/><polygon class="cls-1" points="519.12 200.48 553.7 220.45 519.12 240.41 519.12 200.48"/><polygon class="cls-1" points="519.12 240.41 553.7 260.37 519.12 280.33 519.12 240.41"/><polygon class="cls-1" points="519.12 280.33 553.7 300.29 519.12 320.25 519.12 280.33"/><polygon class="cls-1" points="519.12 320.25 553.7 340.22 519.12 360.18 519.12 320.25"/><polygon class="cls-1" points="519.12 360.18 553.7 380.14 519.12 400.1 519.12 360.18"/><polygon class="cls-1" points="519.12 400.1 553.7 420.06 519.12 440.03 519.12 400.1"/><polygon class="cls-1" points="519.12 440.03 553.7 459.99 519.12 479.95 519.12 440.03"/><polygon class="cls-1" points="519.12 479.95 553.7 499.91 519.12 519.87 519.12 479.95"/><polygon class="cls-1" points="553.7 20.83 588.27 40.79 553.7 60.75 553.7 20.83"/><polygon class="cls-1" points="553.7 60.75 588.27 80.71 553.7 100.67 553.7 60.75"/><polygon class="cls-1" points="553.7 100.67 588.27 120.64 553.7 140.6 553.7 100.67"/><polygon class="cls-1" points="553.7 140.6 588.27 160.56 553.7 180.52 553.7 140.6"/><polygon class="cls-1" points="553.7 180.52 588.27 200.48 553.7 220.45 553.7 180.52"/><polygon class="cls-1" points="553.7 220.45 588.27 240.41 553.7 260.37 553.7 220.45"/><polygon class="cls-1" points="553.7 260.37 588.27 280.33 553.7 300.29 553.7 260.37"/><polygon class="cls-1" points="553.7 300.29 588.27 320.25 553.7 340.22 553.7 300.29"/><polygon class="cls-1" points="553.7 340.22 588.27 360.18 553.7 380.14 553.7 340.22"/><polygon class="cls-1" points="553.7 380.14 588.27 400.1 553.7 420.06 553.7 380.14"/><polygon class="cls-1" points="553.7 420.06 588.27 440.03 553.7 459.99 553.7 420.06"/><polygon class="cls-1" points="553.7 459.99 588.27 479.95 553.7 499.91 553.7 459.99"/><polygon class="cls-1" points="553.7 499.91 588.27 519.87 553.7 539.84 553.7 499.91"/><polygon class="cls-1" points="588.27 0.87 622.85 20.83 588.27 40.79 588.27 0.87"/><polygon class="cls-1" points="588.27 40.79 622.85 60.75 588.27 80.71 588.27 40.79"/><polygon class="cls-1" points="588.27 80.71 622.85 100.67 588.27 120.64 588.27 80.71"/><polygon class="cls-1" points="588.27 120.64 622.85 140.6 588.27 160.56 588.27 120.64"/><polygon class="cls-1" points="588.27 160.56 622.85 180.52 588.27 200.48 588.27 160.56"/><polygon class="cls-1" points="588.27 200.48 622.85 220.45 588.27 240.41 588.27 200.48"/><polygon class="cls-1" points="588.27 240.41 622.85 260.37 588.27 280.33 588.27 240.41"/><polygon class="cls-1" points="588.27 280.33 622.85 300.29 588.27 320.25 588.27 280.33"/><polygon class="cls-1" points="588.27 320.25 622.85 340.22 588.27 360.18 588.27 320.25"/><polygon class="cls-1" points="588.27 360.18 622.85 380.14 588.27 400.1 588.27 360.18"/><polygon class="cls-1" points="588.27 400.1 622.85 420.06 588.27 440.03 588.27 400.1"/><polygon class="cls-1" points="588.27 440.03 622.85 459.99 588.27 479.95 588.27 440.03"/><polygon class="cls-1" points="588.27 479.95 622.85 499.91 588.27 519.87 588.27 479.95"/><polygon class="cls-1" points="622.85 20.83 657.42 40.79 622.85 60.75 622.85 20.83"/><polygon class="cls-1" points="622.85 60.75 657.42 80.71 622.85 100.67 622.85 60.75"/><polygon class="cls-1" points="622.85 100.67 657.42 120.64 622.85 140.6 622.85 100.67"/><polygon class="cls-1" points="622.85 140.6 657.42 160.56 622.85 180.52 622.85 140.6"/><polygon class="cls-1" points="622.85 180.52 657.42 200.48 622.85 220.45 622.85 180.52"/><polygon class="cls-1" points="622.85 220.45 657.42 240.41 622.85 260.37 622.85 220.45"/><polygon class="cls-1" points="622.85 260.37 657.42 280.33 622.85 300.29 622.85 260.37"/><polygon class="cls-1" points="622.85 300.29 657.42 320.25 622.85 340.22 622.85 300.29"/><polygon class="cls-1" points="622.85 340.22 657.42 360.18 622.85 380.14 622.85 340.22"/><polygon class="cls-1" points="622.85 380.14 657.42 400.1 622.85 420.06 622.85 380.14"/><polygon class="cls-1" points="622.85 420.06 657.42 440.03 622.85 459.99 622.85 420.06"/><polygon class="cls-1" points="622.85 459.99 657.42 479.95 622.85 499.91 622.85 459.99"/><polygon class="cls-1" points="622.85 499.91 657.42 519.87 622.85 539.84 622.85 499.91"/><polygon class="cls-1" points="657.42 0.87 692 20.83 657.42 40.79 657.42 0.87"/><polygon class="cls-1" points="657.42 40.79 692 60.75 657.42 80.71 657.42 40.79"/><polygon class="cls-1" points="657.42 80.71 692 100.67 657.42 120.64 657.42 80.71"/><polygon class="cls-1" points="657.42 120.64 692 140.6 657.42 160.56 657.42 120.64"/><polygon class="cls-1" points="657.42 160.56 692 180.52 657.42 200.48 657.42 160.56"/><polygon class="cls-1" points="657.42 200.48 692 220.45 657.42 240.41 657.42 200.48"/><polygon class="cls-1" points="657.42 240.41 692 260.37 657.42 280.33 657.42 240.41"/><polygon class="cls-1" points="657.42 280.33 692 300.29 657.42 320.25 657.42 280.33"/><polygon class="cls-1" points="657.42 320.25 692 340.22 657.42 360.18 657.42 320.25"/><polygon class="cls-1" points="657.42 360.18 692 380.14 657.42 400.1 657.42 360.18"/><polygon class="cls-1" points="657.42 400.1 692 420.06 657.42 440.03 657.42 400.1"/><polygon class="cls-1" points="657.42 440.03 692 459.99 657.42 479.95 657.42 440.03"/><polygon class="cls-1" points="657.42 479.95 692 499.91 657.42 519.87 657.42 479.95"/><polygon class="cls-1" points="692 20.83 726.57 40.79 692 60.75 692 20.83"/><polygon class="cls-1" points="692 60.75 726.57 80.71 692 100.67 692 60.75"/><polygon class="cls-1" points="692 100.67 726.57 120.64 692 140.6 692 100.67"/><polygon class="cls-1" points="692 140.6 726.57 160.56 692 180.52 692 140.6"/><polygon class="cls-1" points="692 180.52 726.57 200.48 692 220.45 692 180.52"/><polygon class="cls-1" points="692 220.45 726.57 240.41 692 260.37 692 220.45"/><polygon class="cls-1" points="692 260.37 726.57 280.33 692 300.29 692 260.37"/><polygon class="cls-1" points="692 300.29 726.57 320.25 692 340.22 692 300.29"/><polygon class="cls-1" points="692 340.22 726.57 360.18 692 380.14 692 340.22"/><polygon class="cls-1" points="692 380.14 726.57 400.1 692 420.06 692 380.14"/><polygon class="cls-1" points="692 420.06 726.57 440.03 692 459.99 692 420.06"/><polygon class="cls-1" points="692 459.99 726.57 479.95 692 499.91 692 459.99"/><polygon class="cls-1" points="692 499.91 726.57 519.87 692 539.84 692 499.91"/><polygon class="cls-1" points="726.57 0.87 761.15 20.83 726.57 40.79 726.57 0.87"/><polygon class="cls-1" points="726.57 40.79 761.15 60.75 726.57 80.71 726.57 40.79"/><polygon class="cls-1" points="726.57 80.71 761.15 100.67 726.57 120.64 726.57 80.71"/><polygon class="cls-1" points="726.57 120.64 761.15 140.6 726.57 160.56 726.57 120.64"/><polygon class="cls-1" points="726.57 160.56 761.15 180.52 726.57 200.48 726.57 160.56"/><polygon class="cls-1" points="726.57 200.48 761.15 220.45 726.57 240.41 726.57 200.48"/><polygon class="cls-1" points="726.57 240.41 761.15 260.37 726.57 280.33 726.57 240.41"/><polygon class="cls-1" points="726.57 280.33 761.15 300.29 726.57 320.25 726.57 280.33"/><polygon class="cls-1" points="726.57 320.25 761.15 340.22 726.57 360.18 726.57 320.25"/><polygon class="cls-1" points="726.57 360.18 761.15 380.14 726.57 400.1 726.57 360.18"/><polygon class="cls-1" points="726.57 400.1 761.15 420.06 726.57 440.03 726.57 400.1"/><polygon class="cls-1" points="726.57 440.03 761.15 459.99 726.57 479.95 726.57 440.03"/><polygon class="cls-1" points="726.57 479.95 761.15 499.91 726.57 519.87 726.57 479.95"/><polygon class="cls-1" points="761.15 20.83 795.72 40.79 761.15 60.75 761.15 20.83"/><polygon class="cls-1" points="761.15 60.75 795.72 80.71 761.15 100.67 761.15 60.75"/><polygon class="cls-1" points="761.15 100.67 795.72 120.64 761.15 140.6 761.15 100.67"/><polygon class="cls-1" points="761.15 140.6 795.72 160.56 761.15 180.52 761.15 140.6"/><polygon class="cls-1" points="761.15 180.52 795.72 200.48 761.15 220.45 761.15 180.52"/><polygon class="cls-1" points="761.15 220.45 795.72 240.41 761.15 260.37 761.15 220.45"/><polygon class="cls-1" points="761.15 260.37 795.72 280.33 761.15 300.29 761.15 260.37"/><polygon class="cls-1" points="761.15 300.29 795.72 320.25 761.15 340.22 761.15 300.29"/><polygon class="cls-1" points="761.15 340.22 795.72 360.18 761.15 380.14 761.15 340.22"/><polygon class="cls-1" points="761.15 380.14 795.72 400.1 761.15 420.06 761.15 380.14"/><polygon class="cls-1" points="761.15 420.06 795.72 440.03 761.15 459.99 761.15 420.06"/><polygon class="cls-1" points="761.15 459.99 795.72 479.95 761.15 499.91 761.15 459.99"/><polygon class="cls-1" points="761.15 499.91 795.72 519.87 761.15 539.84 761.15 499.91"/><polygon class="cls-1" points="795.72 0.87 830.3 20.83 795.72 40.79 795.72 0.87"/><polygon class="cls-1" points="795.72 40.79 830.3 60.75 795.72 80.71 795.72 40.79"/><polygon class="cls-1" points="795.72 80.71 830.3 100.67 795.72 120.64 795.72 80.71"/><polygon class="cls-1" points="795.72 120.64 830.3 140.6 795.72 160.56 795.72 120.64"/><polygon class="cls-1" points="795.72 160.56 830.3 180.52 795.72 200.48 795.72 160.56"/><polygon class="cls-1" points="795.72 200.48 830.3 220.45 795.72 240.41 795.72 200.48"/><polygon class="cls-1" points="795.72 240.41 830.3 260.37 795.72 280.33 795.72 240.41"/><polygon class="cls-1" points="795.72 280.33 830.3 300.29 795.72 320.25 795.72 280.33"/><polygon class="cls-1" points="795.72 320.25 830.3 340.22 795.72 360.18 795.72 320.25"/><polygon class="cls-1" points="795.72 360.18 830.3 380.14 795.72 400.1 795.72 360.18"/><polygon class="cls-1" points="795.72 400.1 830.3 420.06 795.72 440.03 795.72 400.1"/><polygon class="cls-1" points="795.72 440.03 830.3 459.99 795.72 479.95 795.72 440.03"/><polygon class="cls-1" points="795.72 479.95 830.3 499.91 795.72 519.87 795.72 479.95"/><polygon class="cls-1" points="830.3 20.83 864.87 40.79 830.3 60.75 830.3 20.83"/><polygon class="cls-1" points="830.3 60.75 864.87 80.71 830.3 100.67 830.3 60.75"/><polygon class="cls-1" points="830.3 100.67 864.87 120.64 830.3 140.6 830.3 100.67"/><polygon class="cls-1" points="830.3 140.6 864.87 160.56 830.3 180.52 830.3 140.6"/><polygon class="cls-1" points="830.3 180.52 864.87 200.48 830.3 220.45 830.3 180.52"/><polygon class="cls-1" points="830.3 220.45 864.87 240.41 830.3 260.37 830.3 220.45"/><polygon class="cls-1" points="830.3 260.37 864.87 280.33 830.3 300.29 830.3 260.37"/><polygon class="cls-1" points="830.3 300.29 864.87 320.25 830.3 340.22 830.3 300.29"/><polygon class="cls-1" points="830.3 340.22 864.87 360.18 830.3 380.14 830.3 340.22"/><polygon class="cls-1" points="830.3 380.14 864.87 400.1 830.3 420.06 830.3 380.14"/><polygon class="cls-1" points="830.3 420.06 864.87 440.03 830.3 459.99 830.3 420.06"/><polygon class="cls-1" points="830.3 459.99 864.87 479.95 830.3 499.91 830.3 459.99"/><polygon class="cls-1" points="830.3 499.91 864.87 519.87 830.3 539.84 830.3 499.91"/><polygon class="cls-1" points="864.87 0.87 899.45 20.83 864.87 40.79 864.87 0.87"/><polygon class="cls-1" points="864.87 40.79 899.45 60.75 864.87 80.71 864.87 40.79"/><polygon class="cls-1" points="864.87 80.71 899.45 100.67 864.87 120.64 864.87 80.71"/><polygon class="cls-1" points="864.87 120.64 899.45 140.6 864.87 160.56 864.87 120.64"/><polygon class="cls-1" points="864.87 160.56 899.45 180.52 864.87 200.48 864.87 160.56"/><polygon class="cls-1" points="864.87 200.48 899.45 220.45 864.87 240.41 864.87 200.48"/><polygon class="cls-1" points="864.87 240.41 899.45 260.37 864.87 280.33 864.87 240.41"/><polygon class="cls-1" points="864.87 280.33 899.45 300.29 864.87 320.25 864.87 280.33"/><polygon class="cls-1" points="864.87 320.25 899.45 340.22 864.87 360.18 864.87 320.25"/><polygon class="cls-1" points="864.87 360.18 899.45 380.14 864.87 400.1 864.87 360.18"/><polygon class="cls-1" points="864.87 400.1 899.45 420.06 864.87 440.03 864.87 400.1"/><polygon class="cls-1" points="864.87 440.03 899.45 459.99 864.87 479.95 864.87 440.03"/><polygon class="cls-1" points="864.87 479.95 899.45 499.91 864.87 519.87 864.87 479.95"/><rect class="cls-2" x="235.05" y="240.7" width="429.86" height="59.29"/><text class="cls-3" transform="translate(283.38 284.98)">Jia Ling Lin Huang</text><g class="cls-4"><polygon class="cls-5" points="0.5 20.83 35.08 40.79 0.5 60.75 0.5 20.83"/><polygon class="cls-5" points="0.5 60.75 35.08 80.71 0.5 100.67 0.5 60.75"/><polygon class="cls-5" points="0.5 100.67 35.08 120.64 0.5 140.6 0.5 100.67"/><polygon class="cls-5" points="0.5 140.6 35.08 160.56 0.5 180.52 0.5 140.6"/><polygon class="cls-5" points="0.5 180.52 35.08 200.48 0.5 220.45 0.5 180.52"/><polygon class="cls-5" points="0.5 220.45 35.08 240.41 0.5 260.37 0.5 220.45"/><polygon class="cls-5" points="0.5 260.37 35.08 280.33 0.5 300.29 0.5 260.37"/><polygon class="cls-5" points="0.5 300.29 35.08 320.25 0.5 340.22 0.5 300.29"/><polygon class="cls-5" points="0.5 340.22 35.08 360.18 0.5 380.14 0.5 340.22"/><polygon class="cls-5" points="0.5 380.14 35.08 400.1 0.5 420.06 0.5 380.14"/><polygon class="cls-5" points="0.5 420.06 35.08 440.03 0.5 459.99 0.5 420.06"/><polygon class="cls-5" points="0.5 459.99 35.08 479.95 0.5 499.91 0.5 459.99"/><polygon class="cls-5" points="0.5 499.91 35.08 519.87 0.5 539.84 0.5 499.91"/><polygon class="cls-5" points="35.08 0.87 69.65 20.83 35.08 40.79 35.08 0.87"/><polygon class="cls-5" points="35.08 40.79 69.65 60.75 35.08 80.71 35.08 40.79"/><polygon class="cls-5" points="35.08 80.71 69.65 100.67 35.08 120.64 35.08 80.71"/><polygon class="cls-5" points="35.08 120.64 69.65 140.6 35.08 160.56 35.08 120.64"/><polygon class="cls-5" points="35.08 160.56 69.65 180.52 35.08 200.48 35.08 160.56"/><polygon class="cls-5" points="35.08 200.48 69.65 220.45 35.08 240.41 35.08 200.48"/><polygon class="cls-5" points="35.08 240.41 69.65 260.37 35.08 280.33 35.08 240.41"/><polygon class="cls-5" points="35.08 280.33 69.65 300.29 35.08 320.25 35.08 280.33"/><polygon class="cls-5" points="35.08 320.25 69.65 340.22 35.08 360.18 35.08 320.25"/><polygon class="cls-5" points="35.08 360.18 69.65 380.14 35.08 400.1 35.08 360.18"/><polygon class="cls-5" points="35.08 400.1 69.65 420.06 35.08 440.03 35.08 400.1"/><polygon class="cls-5" points="35.08 440.03 69.65 459.99 35.08 479.95 35.08 440.03"/><polygon class="cls-5" points="35.08 479.95 69.65 499.91 35.08 519.87 35.08 479.95"/><polygon class="cls-5" points="69.65 20.83 104.22 40.79 69.65 60.75 69.65 20.83"/><polygon class="cls-5" points="69.65 60.75 104.22 80.71 69.65 100.67 69.65 60.75"/><polygon class="cls-5" points="69.65 100.67 104.22 120.64 69.65 140.6 69.65 100.67"/><polygon class="cls-5" points="69.65 140.6 104.22 160.56 69.65 180.52 69.65 140.6"/><polygon class="cls-5" points="69.65 180.52 104.22 200.48 69.65 220.45 69.65 180.52"/><polygon class="cls-5" points="69.65 220.45 104.22 240.41 69.65 260.37 69.65 220.45"/><polygon class="cls-5" points="69.65 260.37 104.22 280.33 69.65 300.29 69.65 260.37"/><polygon class="cls-5" points="69.65 300.29 104.22 320.25 69.65 340.22 69.65 300.29"/><polygon class="cls-5" points="69.65 340.22 104.22 360.18 69.65 380.14 69.65 340.22"/><polygon class="cls-5" points="69.65 380.14 104.22 400.1 69.65 420.06 69.65 380.14"/><polygon class="cls-5" points="69.65 420.06 104.22 440.03 69.65 459.99 69.65 420.06"/><polygon class="cls-5" points="69.65 459.99 104.22 479.95 69.65 499.91 69.65 459.99"/><polygon class="cls-5" points="69.65 499.91 104.22 519.87 69.65 539.84 69.65 499.91"/><polygon class="cls-5" points="104.22 0.87 138.8 20.83 104.22 40.79 104.22 0.87"/><polygon class="cls-5" points="104.22 40.79 138.8 60.75 104.22 80.71 104.22 40.79"/><polygon class="cls-5" points="104.22 80.71 138.8 100.67 104.22 120.64 104.22 80.71"/><polygon class="cls-5" points="104.22 120.64 138.8 140.6 104.22 160.56 104.22 120.64"/><polygon class="cls-5" points="104.22 160.56 138.8 180.52 104.22 200.48 104.22 160.56"/><polygon class="cls-5" points="104.22 200.48 138.8 220.45 104.22 240.41 104.22 200.48"/><polygon class="cls-5" points="104.22 240.41 138.8 260.37 104.22 280.33 104.22 240.41"/><polygon class="cls-5" points="104.22 280.33 138.8 300.29 104.22 320.25 104.22 280.33"/><polygon class="cls-5" points="104.22 320.25 138.8 340.22 104.22 360.18 104.22 320.25"/><polygon class="cls-5" points="104.22 360.18 138.8 380.14 104.22 400.1 104.22 360.18"/><polygon class="cls-5" points="104.22 400.1 138.8 420.06 104.22 440.03 104.22 400.1"/><polygon class="cls-5" points="104.22 440.03 138.8 459.99 104.22 479.95 104.22 440.03"/><polygon class="cls-5" points="104.22 479.95 138.8 499.91 104.22 519.87 104.22 479.95"/><polygon class="cls-5" points="138.8 20.83 173.38 40.79 138.8 60.75 138.8 20.83"/><polygon class="cls-5" points="138.8 60.75 173.38 80.71 138.8 100.67 138.8 60.75"/><polygon class="cls-5" points="138.8 100.67 173.38 120.64 138.8 140.6 138.8 100.67"/><polygon class="cls-5" points="138.8 140.6 173.38 160.56 138.8 180.52 138.8 140.6"/><polygon class="cls-5" points="138.8 180.52 173.38 200.48 138.8 220.45 138.8 180.52"/><polygon class="cls-5" points="138.8 220.45 173.38 240.41 138.8 260.37 138.8 220.45"/><polygon class="cls-5" points="138.8 260.37 173.38 280.33 138.8 300.29 138.8 260.37"/><polygon class="cls-5" points="138.8 300.29 173.38 320.25 138.8 340.22 138.8 300.29"/><polygon class="cls-5" points="138.8 340.22 173.38 360.18 138.8 380.14 138.8 340.22"/><polygon class="cls-5" points="138.8 380.14 173.38 400.1 138.8 420.06 138.8 380.14"/><polygon class="cls-5" points="138.8 420.06 173.38 440.03 138.8 459.99 138.8 420.06"/><polygon class="cls-5" points="138.8 459.99 173.38 479.95 138.8 499.91 138.8 459.99"/><polygon class="cls-5" points="138.8 499.91 173.38 519.87 138.8 539.84 138.8 499.91"/><polygon class="cls-5" points="173.38 0.87 207.95 20.83 173.38 40.79 173.38 0.87"/><polygon class="cls-5" points="173.38 40.79 207.95 60.75 173.38 80.71 173.38 40.79"/><polygon class="cls-5" points="173.38 80.71 207.95 100.67 173.38 120.64 173.38 80.71"/><polygon class="cls-5" points="173.38 120.64 207.95 140.6 173.38 160.56 173.38 120.64"/><polygon class="cls-5" points="173.38 160.56 207.95 180.52 173.38 200.48 173.38 160.56"/><polygon class="cls-5" points="173.38 200.48 207.95 220.45 173.38 240.41 173.38 200.48"/><polygon class="cls-5" points="173.38 240.41 207.95 260.37 173.38 280.33 173.38 240.41"/><polygon class="cls-5" points="173.38 280.33 207.95 300.29 173.38 320.25 173.38 280.33"/><polygon class="cls-5" points="173.38 320.25 207.95 340.22 173.38 360.18 173.38 320.25"/><polygon class="cls-5" points="173.38 360.18 207.95 380.14 173.38 400.1 173.38 360.18"/><polygon class="cls-5" points="173.38 400.1 207.95 420.06 173.38 440.03 173.38 400.1"/><polygon class="cls-5" points="173.38 440.03 207.95 459.99 173.38 479.95 173.38 440.03"/><polygon class="cls-5" points="173.38 479.95 207.95 499.91 173.38 519.87 173.38 479.95"/><polygon class="cls-5" points="207.95 20.83 242.53 40.79 207.95 60.75 207.95 20.83"/><polygon class="cls-5" points="207.95 60.75 242.53 80.71 207.95 100.67 207.95 60.75"/><polygon class="cls-5" points="207.95 100.67 242.53 120.64 207.95 140.6 207.95 100.67"/><polygon class="cls-5" points="207.95 140.6 242.53 160.56 207.95 180.52 207.95 140.6"/><polygon class="cls-5" points="207.95 180.52 242.53 200.48 207.95 220.45 207.95 180.52"/><polygon class="cls-5" points="207.95 220.45 242.53 240.41 207.95 260.37 207.95 220.45"/><polygon class="cls-5" points="207.95 260.37 242.53 280.33 207.95 300.29 207.95 260.37"/><polygon class="cls-5" points="207.95 300.29 242.53 320.25 207.95 340.22 207.95 300.29"/><polygon class="cls-5" points="207.95 340.22 242.53 360.18 207.95 380.14 207.95 340.22"/><polygon class="cls-5" points="207.95 380.14 242.53 400.1 207.95 420.06 207.95 380.14"/><polygon class="cls-5" points="207.95 420.06 242.53 440.03 207.95 459.99 207.95 420.06"/><polygon class="cls-5" points="207.95 459.99 242.53 479.95 207.95 499.91 207.95 459.99"/><polygon class="cls-5" points="207.95 499.91 242.53 519.87 207.95 539.84 207.95 499.91"/><polygon class="cls-5" points="242.53 0.87 277.1 20.83 242.53 40.79 242.53 0.87"/><polygon class="cls-5" points="242.53 40.79 277.1 60.75 242.53 80.71 242.53 40.79"/><polygon class="cls-5" points="242.53 80.71 277.1 100.67 242.53 120.64 242.53 80.71"/><polygon class="cls-5" points="242.53 120.64 277.1 140.6 242.53 160.56 242.53 120.64"/><polygon class="cls-5" points="242.53 160.56 277.1 180.52 242.53 200.48 242.53 160.56"/><polygon class="cls-5" points="242.53 200.48 277.1 220.45 242.53 240.41 242.53 200.48"/><polygon class="cls-5" points="242.53 240.41 277.1 260.37 242.53 280.33 242.53 240.41"/><polygon class="cls-5" points="242.53 280.33 277.1 300.29 242.53 320.25 242.53 280.33"/><polygon class="cls-5" points="242.53 320.25 277.1 340.22 242.53 360.18 242.53 320.25"/><polygon class="cls-5" points="242.53 360.18 277.1 380.14 242.53 400.1 242.53 360.18"/><polygon class="cls-5" points="242.53 400.1 277.1 420.06 242.53 440.03 242.53 400.1"/><polygon class="cls-5" points="242.53 440.03 277.1 459.99 242.53 479.95 242.53 440.03"/><polygon class="cls-5" points="242.53 479.95 277.1 499.91 242.53 519.87 242.53 479.95"/><polygon class="cls-5" points="277.1 20.83 311.67 40.79 277.1 60.75 277.1 20.83"/><polygon class="cls-5" points="277.1 60.75 311.67 80.71 277.1 100.67 277.1 60.75"/><polygon class="cls-5" points="277.1 100.67 311.67 120.64 277.1 140.6 277.1 100.67"/><polygon class="cls-5" points="277.1 140.6 311.67 160.56 277.1 180.52 277.1 140.6"/><polygon class="cls-5" points="277.1 180.52 311.67 200.48 277.1 220.45 277.1 180.52"/><polygon class="cls-5" points="277.1 220.45 311.67 240.41 277.1 260.37 277.1 220.45"/><polygon class="cls-5" points="277.1 260.37 311.67 280.33 277.1 300.29 277.1 260.37"/><polygon class="cls-5" points="277.1 300.29 311.67 320.25 277.1 340.22 277.1 300.29"/><polygon class="cls-5" points="277.1 340.22 311.67 360.18 277.1 380.14 277.1 340.22"/><polygon class="cls-5" points="277.1 380.14 311.67 400.1 277.1 420.06 277.1 380.14"/><polygon class="cls-5" points="277.1 420.06 311.67 440.03 277.1 459.99 277.1 420.06"/><polygon class="cls-5" points="277.1 459.99 311.67 479.95 277.1 499.91 277.1 459.99"/><polygon class="cls-5" points="277.1 499.91 311.67 519.87 277.1 539.84 277.1 499.91"/><polygon class="cls-5" points="311.67 0.87 346.25 20.83 311.67 40.79 311.67 0.87"/><polygon class="cls-5" points="311.67 40.79 346.25 60.75 311.67 80.71 311.67 40.79"/><polygon class="cls-5" points="311.67 80.71 346.25 100.67 311.67 120.64 311.67 80.71"/><polygon class="cls-5" points="311.67 120.64 346.25 140.6 311.67 160.56 311.67 120.64"/><polygon class="cls-5" points="311.67 160.56 346.25 180.52 311.67 200.48 311.67 160.56"/><polygon class="cls-5" points="311.67 200.48 346.25 220.45 311.67 240.41 311.67 200.48"/><polygon class="cls-5" points="311.67 240.41 346.25 260.37 311.67 280.33 311.67 240.41"/><polygon class="cls-5" points="311.67 280.33 346.25 300.29 311.67 320.25 311.67 280.33"/><polygon class="cls-5" points="311.67 320.25 346.25 340.22 311.67 360.18 311.67 320.25"/><polygon class="cls-5" points="311.67 360.18 346.25 380.14 311.67 400.1 311.67 360.18"/><polygon class="cls-5" points="311.67 400.1 346.25 420.06 311.67 440.03 311.67 400.1"/><polygon class="cls-5" points="311.67 440.03 346.25 459.99 311.67 479.95 311.67 440.03"/><polygon class="cls-5" points="311.67 479.95 346.25 499.91 311.67 519.87 311.67 479.95"/><polygon class="cls-5" points="346.25 20.83 380.82 40.79 346.25 60.75 346.25 20.83"/><polygon class="cls-5" points="346.25 60.75 380.82 80.71 346.25 100.67 346.25 60.75"/><polygon class="cls-5" points="346.25 100.67 380.82 120.64 346.25 140.6 346.25 100.67"/><polygon class="cls-5" points="346.25 140.6 380.82 160.56 346.25 180.52 346.25 140.6"/><polygon class="cls-5" points="346.25 180.52 380.82 200.48 346.25 220.45 346.25 180.52"/><polygon class="cls-5" points="346.25 220.45 380.82 240.41 346.25 260.37 346.25 220.45"/><polygon class="cls-5" points="346.25 260.37 380.82 280.33 346.25 300.29 346.25 260.37"/><polygon class="cls-5" points="346.25 300.29 380.82 320.25 346.25 340.22 346.25 300.29"/><polygon class="cls-5" points="346.25 340.22 380.82 360.18 346.25 380.14 346.25 340.22"/><polygon class="cls-5" points="346.25 380.14 380.82 400.1 346.25 420.06 346.25 380.14"/><polygon class="cls-5" points="346.25 420.06 380.82 440.03 346.25 459.99 346.25 420.06"/><polygon class="cls-5" points="346.25 459.99 380.82 479.95 346.25 499.91 346.25 459.99"/><polygon class="cls-5" points="346.25 499.91 380.82 519.87 346.25 539.84 346.25 499.91"/><polygon class="cls-5" points="380.82 0.87 415.4 20.83 380.82 40.79 380.82 0.87"/><polygon class="cls-5" points="380.82 40.79 415.4 60.75 380.82 80.71 380.82 40.79"/><polygon class="cls-5" points="380.82 80.71 415.4 100.67 380.82 120.64 380.82 80.71"/><polygon class="cls-5" points="380.82 120.64 415.4 140.6 380.82 160.56 380.82 120.64"/><polygon class="cls-5" points="380.82 160.56 415.4 180.52 380.82 200.48 380.82 160.56"/><polygon class="cls-5" points="380.82 200.48 415.4 220.45 380.82 240.41 380.82 200.48"/><polygon class="cls-5" points="380.82 240.41 415.4 260.37 380.82 280.33 380.82 240.41"/><polygon class="cls-5" points="380.82 280.33 415.4 300.29 380.82 320.25 380.82 280.33"/><polygon class="cls-5" points="380.82 320.25 415.4 340.22 380.82 360.18 380.82 320.25"/><polygon class="cls-5" points="380.82 360.18 415.4 380.14 380.82 400.1 380.82 360.18"/><polygon class="cls-5" points="380.82 400.1 415.4 420.06 380.82 440.03 380.82 400.1"/><polygon class="cls-5" points="380.82 440.03 415.4 459.99 380.82 479.95 380.82 440.03"/><polygon class="cls-5" points="380.82 479.95 415.4 499.91 380.82 519.87 380.82 479.95"/><polygon class="cls-5" points="415.4 20.83 449.97 40.79 415.4 60.75 415.4 20.83"/><polygon class="cls-5" points="415.4 60.75 449.97 80.71 415.4 100.67 415.4 60.75"/><polygon class="cls-5" points="415.4 100.67 449.97 120.64 415.4 140.6 415.4 100.67"/><polygon class="cls-5" points="415.4 140.6 449.97 160.56 415.4 180.52 415.4 140.6"/><polygon class="cls-5" points="415.4 180.52 449.97 200.48 415.4 220.45 415.4 180.52"/><polygon class="cls-5" points="415.4 220.45 449.97 240.41 415.4 260.37 415.4 220.45"/><polygon class="cls-5" points="415.4 260.37 449.97 280.33 415.4 300.29 415.4 260.37"/><polygon class="cls-5" points="415.4 300.29 449.97 320.25 415.4 340.22 415.4 300.29"/><polygon class="cls-5" points="415.4 340.22 449.97 360.18 415.4 380.14 415.4 340.22"/><polygon class="cls-5" points="415.4 380.14 449.97 400.1 415.4 420.06 415.4 380.14"/><polygon class="cls-5" points="415.4 420.06 449.97 440.03 415.4 459.99 415.4 420.06"/><polygon class="cls-5" points="415.4 459.99 449.97 479.95 415.4 499.91 415.4 459.99"/><polygon class="cls-5" points="415.4 499.91 449.97 519.87 415.4 539.84 415.4 499.91"/><polygon class="cls-5" points="449.97 0.87 484.55 20.83 449.97 40.79 449.97 0.87"/><polygon class="cls-5" points="449.97 40.79 484.55 60.75 449.97 80.71 449.97 40.79"/><polygon class="cls-5" points="449.97 80.71 484.55 100.67 449.97 120.64 449.97 80.71"/><polygon class="cls-5" points="449.97 120.64 484.55 140.6 449.97 160.56 449.97 120.64"/><polygon class="cls-5" points="449.97 160.56 484.55 180.52 449.97 200.48 449.97 160.56"/><polygon class="cls-5" points="449.97 200.48 484.55 220.45 449.97 240.41 449.97 200.48"/><polygon class="cls-5" points="449.97 240.41 484.55 260.37 449.97 280.33 449.97 240.41"/><polygon class="cls-5" points="449.97 280.33 484.55 300.29 449.97 320.25 449.97 280.33"/><polygon class="cls-5" points="449.97 320.25 484.55 340.22 449.97 360.18 449.97 320.25"/><polygon class="cls-5" points="449.97 360.18 484.55 380.14 449.97 400.1 449.97 360.18"/><polygon class="cls-5" points="449.97 400.1 484.55 420.06 449.97 440.03 449.97 400.1"/><polygon class="cls-5" points="449.97 440.03 484.55 459.99 449.97 479.95 449.97 440.03"/><polygon class="cls-5" points="449.97 479.95 484.55 499.91 449.97 519.87 449.97 479.95"/><polygon class="cls-5" points="484.55 20.83 519.12 40.79 484.55 60.75 484.55 20.83"/><polygon class="cls-5" points="484.55 60.75 519.12 80.71 484.55 100.67 484.55 60.75"/><polygon class="cls-5" points="484.55 100.67 519.12 120.64 484.55 140.6 484.55 100.67"/><polygon class="cls-5" points="484.55 140.6 519.12 160.56 484.55 180.52 484.55 140.6"/><polygon class="cls-5" points="484.55 180.52 519.12 200.48 484.55 220.45 484.55 180.52"/><polygon class="cls-5" points="484.55 220.45 519.12 240.41 484.55 260.37 484.55 220.45"/><polygon class="cls-5" points="484.55 260.37 519.12 280.33 484.55 300.29 484.55 260.37"/><polygon class="cls-5" points="484.55 300.29 519.12 320.25 484.55 340.22 484.55 300.29"/><polygon class="cls-5" points="484.55 340.22 519.12 360.18 484.55 380.14 484.55 340.22"/><polygon class="cls-5" points="484.55 380.14 519.12 400.1 484.55 420.06 484.55 380.14"/><polygon class="cls-5" points="484.55 420.06 519.12 440.03 484.55 459.99 484.55 420.06"/><polygon class="cls-5" points="484.55 459.99 519.12 479.95 484.55 499.91 484.55 459.99"/><polygon class="cls-5" points="484.55 499.91 519.12 519.87 484.55 539.84 484.55 499.91"/><polygon class="cls-5" points="519.12 0.87 553.7 20.83 519.12 40.79 519.12 0.87"/><polygon class="cls-5" points="519.12 40.79 553.7 60.75 519.12 80.71 519.12 40.79"/><polygon class="cls-5" points="519.12 80.71 553.7 100.67 519.12 120.64 519.12 80.71"/><polygon class="cls-5" points="519.12 120.64 553.7 140.6 519.12 160.56 519.12 120.64"/><polygon class="cls-5" points="519.12 160.56 553.7 180.52 519.12 200.48 519.12 160.56"/><polygon class="cls-5" points="519.12 200.48 553.7 220.45 519.12 240.41 519.12 200.48"/><polygon class="cls-5" points="519.12 240.41 553.7 260.37 519.12 280.33 519.12 240.41"/><polygon class="cls-5" points="519.12 280.33 553.7 300.29 519.12 320.25 519.12 280.33"/><polygon class="cls-5" points="519.12 320.25 553.7 340.22 519.12 360.18 519.12 320.25"/><polygon class="cls-5" points="519.12 360.18 553.7 380.14 519.12 400.1 519.12 360.18"/><polygon class="cls-5" points="519.12 400.1 553.7 420.06 519.12 440.03 519.12 400.1"/><polygon class="cls-5" points="519.12 440.03 553.7 459.99 519.12 479.95 519.12 440.03"/><polygon class="cls-5" points="519.12 479.95 553.7 499.91 519.12 519.87 519.12 479.95"/><polygon class="cls-5" points="553.7 20.83 588.27 40.79 553.7 60.75 553.7 20.83"/><polygon class="cls-5" points="553.7 60.75 588.27 80.71 553.7 100.67 553.7 60.75"/><polygon class="cls-5" points="553.7 100.67 588.27 120.64 553.7 140.6 553.7 100.67"/><polygon class="cls-5" points="553.7 140.6 588.27 160.56 553.7 180.52 553.7 140.6"/><polygon class="cls-5" points="553.7 180.52 588.27 200.48 553.7 220.45 553.7 180.52"/><polygon class="cls-5" points="553.7 220.45 588.27 240.41 553.7 260.37 553.7 220.45"/><polygon class="cls-5" points="553.7 260.37 588.27 280.33 553.7 300.29 553.7 260.37"/><polygon class="cls-5" points="553.7 300.29 588.27 320.25 553.7 340.22 553.7 300.29"/><polygon class="cls-5" points="553.7 340.22 588.27 360.18 553.7 380.14 553.7 340.22"/><polygon class="cls-5" points="553.7 380.14 588.27 400.1 553.7 420.06 553.7 380.14"/><polygon class="cls-5" points="553.7 420.06 588.27 440.03 553.7 459.99 553.7 420.06"/><polygon class="cls-5" points="553.7 459.99 588.27 479.95 553.7 499.91 553.7 459.99"/><polygon class="cls-5" points="553.7 499.91 588.27 519.87 553.7 539.84 553.7 499.91"/><polygon class="cls-5" points="588.27 0.87 622.85 20.83 588.27 40.79 588.27 0.87"/><polygon class="cls-5" points="588.27 40.79 622.85 60.75 588.27 80.71 588.27 40.79"/><polygon class="cls-5" points="588.27 80.71 622.85 100.67 588.27 120.64 588.27 80.71"/><polygon class="cls-5" points="588.27 120.64 622.85 140.6 588.27 160.56 588.27 120.64"/><polygon class="cls-5" points="588.27 160.56 622.85 180.52 588.27 200.48 588.27 160.56"/><polygon class="cls-5" points="588.27 200.48 622.85 220.45 588.27 240.41 588.27 200.48"/><polygon class="cls-5" points="588.27 240.41 622.85 260.37 588.27 280.33 588.27 240.41"/><polygon class="cls-5" points="588.27 280.33 622.85 300.29 588.27 320.25 588.27 280.33"/><polygon class="cls-5" points="588.27 320.25 622.85 340.22 588.27 360.18 588.27 320.25"/><polygon class="cls-5" points="588.27 360.18 622.85 380.14 588.27 400.1 588.27 360.18"/><polygon class="cls-5" points="588.27 400.1 622.85 420.06 588.27 440.03 588.27 400.1"/><polygon class="cls-5" points="588.27 440.03 622.85 459.99 588.27 479.95 588.27 440.03"/><polygon class="cls-5" points="588.27 479.95 622.85 499.91 588.27 519.87 588.27 479.95"/><polygon class="cls-5" points="622.85 20.83 657.42 40.79 622.85 60.75 622.85 20.83"/><polygon class="cls-5" points="622.85 60.75 657.42 80.71 622.85 100.67 622.85 60.75"/><polygon class="cls-5" points="622.85 100.67 657.42 120.64 622.85 140.6 622.85 100.67"/><polygon class="cls-5" points="622.85 140.6 657.42 160.56 622.85 180.52 622.85 140.6"/><polygon class="cls-5" points="622.85 180.52 657.42 200.48 622.85 220.45 622.85 180.52"/><polygon class="cls-5" points="622.85 220.45 657.42 240.41 622.85 260.37 622.85 220.45"/><polygon class="cls-5" points="622.85 260.37 657.42 280.33 622.85 300.29 622.85 260.37"/><polygon class="cls-5" points="622.85 300.29 657.42 320.25 622.85 340.22 622.85 300.29"/><polygon class="cls-5" points="622.85 340.22 657.42 360.18 622.85 380.14 622.85 340.22"/><polygon class="cls-5" points="622.85 380.14 657.42 400.1 622.85 420.06 622.85 380.14"/><polygon class="cls-5" points="622.85 420.06 657.42 440.03 622.85 459.99 622.85 420.06"/><polygon class="cls-5" points="622.85 459.99 657.42 479.95 622.85 499.91 622.85 459.99"/><polygon class="cls-5" points="622.85 499.91 657.42 519.87 622.85 539.84 622.85 499.91"/><polygon class="cls-5" points="657.42 0.87 692 20.83 657.42 40.79 657.42 0.87"/><polygon class="cls-5" points="657.42 40.79 692 60.75 657.42 80.71 657.42 40.79"/><polygon class="cls-5" points="657.42 80.71 692 100.67 657.42 120.64 657.42 80.71"/><polygon class="cls-5" points="657.42 120.64 692 140.6 657.42 160.56 657.42 120.64"/><polygon class="cls-5" points="657.42 160.56 692 180.52 657.42 200.48 657.42 160.56"/><polygon class="cls-5" points="657.42 200.48 692 220.45 657.42 240.41 657.42 200.48"/><polygon class="cls-5" points="657.42 240.41 692 260.37 657.42 280.33 657.42 240.41"/><polygon class="cls-5" points="657.42 280.33 692 300.29 657.42 320.25 657.42 280.33"/><polygon class="cls-5" points="657.42 320.25 692 340.22 657.42 360.18 657.42 320.25"/><polygon class="cls-5" points="657.42 360.18 692 380.14 657.42 400.1 657.42 360.18"/><polygon class="cls-5" points="657.42 400.1 692 420.06 657.42 440.03 657.42 400.1"/><polygon class="cls-5" points="657.42 440.03 692 459.99 657.42 479.95 657.42 440.03"/><polygon class="cls-5" points="657.42 479.95 692 499.91 657.42 519.87 657.42 479.95"/><polygon class="cls-5" points="692 20.83 726.57 40.79 692 60.75 692 20.83"/><polygon class="cls-5" points="692 60.75 726.57 80.71 692 100.67 692 60.75"/><polygon class="cls-5" points="692 100.67 726.57 120.64 692 140.6 692 100.67"/><polygon class="cls-5" points="692 140.6 726.57 160.56 692 180.52 692 140.6"/><polygon class="cls-5" points="692 180.52 726.57 200.48 692 220.45 692 180.52"/><polygon class="cls-5" points="692 220.45 726.57 240.41 692 260.37 692 220.45"/><polygon class="cls-5" points="692 260.37 726.57 280.33 692 300.29 692 260.37"/><polygon class="cls-5" points="692 300.29 726.57 320.25 692 340.22 692 300.29"/><polygon class="cls-5" points="692 340.22 726.57 360.18 692 380.14 692 340.22"/><polygon class="cls-5" points="692 380.14 726.57 400.1 692 420.06 692 380.14"/><polygon class="cls-5" points="692 420.06 726.57 440.03 692 459.99 692 420.06"/><polygon class="cls-5" points="692 459.99 726.57 479.95 692 499.91 692 459.99"/><polygon class="cls-5" points="692 499.91 726.57 519.87 692 539.84 692 499.91"/><polygon class="cls-5" points="726.57 0.87 761.15 20.83 726.57 40.79 726.57 0.87"/><polygon class="cls-5" points="726.57 40.79 761.15 60.75 726.57 80.71 726.57 40.79"/><polygon class="cls-5" points="726.57 80.71 761.15 100.67 726.57 120.64 726.57 80.71"/><polygon class="cls-5" points="726.57 120.64 761.15 140.6 726.57 160.56 726.57 120.64"/><polygon class="cls-5" points="726.57 160.56 761.15 180.52 726.57 200.48 726.57 160.56"/><polygon class="cls-5" points="726.57 200.48 761.15 220.45 726.57 240.41 726.57 200.48"/><polygon class="cls-5" points="726.57 240.41 761.15 260.37 726.57 280.33 726.57 240.41"/><polygon class="cls-5" points="726.57 280.33 761.15 300.29 726.57 320.25 726.57 280.33"/><polygon class="cls-5" points="726.57 320.25 761.15 340.22 726.57 360.18 726.57 320.25"/><polygon class="cls-5" points="726.57 360.18 761.15 380.14 726.57 400.1 726.57 360.18"/><polygon class="cls-5" points="726.57 400.1 761.15 420.06 726.57 440.03 726.57 400.1"/><polygon class="cls-5" points="726.57 440.03 761.15 459.99 726.57 479.95 726.57 440.03"/><polygon class="cls-5" points="726.57 479.95 761.15 499.91 726.57 519.87 726.57 479.95"/><polygon class="cls-5" points="761.15 20.83 795.72 40.79 761.15 60.75 761.15 20.83"/><polygon class="cls-5" points="761.15 60.75 795.72 80.71 761.15 100.67 761.15 60.75"/><polygon class="cls-5" points="761.15 100.67 795.72 120.64 761.15 140.6 761.15 100.67"/><polygon class="cls-5" points="761.15 140.6 795.72 160.56 761.15 180.52 761.15 140.6"/><polygon class="cls-5" points="761.15 180.52 795.72 200.48 761.15 220.45 761.15 180.52"/><polygon class="cls-5" points="761.15 220.45 795.72 240.41 761.15 260.37 761.15 220.45"/><polygon class="cls-5" points="761.15 260.37 795.72 280.33 761.15 300.29 761.15 260.37"/><polygon class="cls-5" points="761.15 300.29 795.72 320.25 761.15 340.22 761.15 300.29"/><polygon class="cls-5" points="761.15 340.22 795.72 360.18 761.15 380.14 761.15 340.22"/><polygon class="cls-5" points="761.15 380.14 795.72 400.1 761.15 420.06 761.15 380.14"/><polygon class="cls-5" points="761.15 420.06 795.72 440.03 761.15 459.99 761.15 420.06"/><polygon class="cls-5" points="761.15 459.99 795.72 479.95 761.15 499.91 761.15 459.99"/><polygon class="cls-5" points="761.15 499.91 795.72 519.87 761.15 539.84 761.15 499.91"/><polygon class="cls-5" points="795.72 0.87 830.3 20.83 795.72 40.79 795.72 0.87"/><polygon class="cls-5" points="795.72 40.79 830.3 60.75 795.72 80.71 795.72 40.79"/><polygon class="cls-5" points="795.72 80.71 830.3 100.67 795.72 120.64 795.72 80.71"/><polygon class="cls-5" points="795.72 120.64 830.3 140.6 795.72 160.56 795.72 120.64"/><polygon class="cls-5" points="795.72 160.56 830.3 180.52 795.72 200.48 795.72 160.56"/><polygon class="cls-5" points="795.72 200.48 830.3 220.45 795.72 240.41 795.72 200.48"/><polygon class="cls-5" points="795.72 240.41 830.3 260.37 795.72 280.33 795.72 240.41"/><polygon class="cls-5" points="795.72 280.33 830.3 300.29 795.72 320.25 795.72 280.33"/><polygon class="cls-5" points="795.72 320.25 830.3 340.22 795.72 360.18 795.72 320.25"/><polygon class="cls-5" points="795.72 360.18 830.3 380.14 795.72 400.1 795.72 360.18"/><polygon class="cls-5" points="795.72 400.1 830.3 420.06 795.72 440.03 795.72 400.1"/><polygon class="cls-5" points="795.72 440.03 830.3 459.99 795.72 479.95 795.72 440.03"/><polygon class="cls-5" points="795.72 479.95 830.3 499.91 795.72 519.87 795.72 479.95"/><polygon class="cls-5" points="830.3 20.83 864.87 40.79 830.3 60.75 830.3 20.83"/><polygon class="cls-5" points="830.3 60.75 864.87 80.71 830.3 100.67 830.3 60.75"/><polygon class="cls-5" points="830.3 100.67 864.87 120.64 830.3 140.6 830.3 100.67"/><polygon class="cls-5" points="830.3 140.6 864.87 160.56 830.3 180.52 830.3 140.6"/><polygon class="cls-5" points="830.3 180.52 864.87 200.48 830.3 220.45 830.3 180.52"/><polygon class="cls-5" points="830.3 220.45 864.87 240.41 830.3 260.37 830.3 220.45"/><polygon class="cls-5" points="830.3 260.37 864.87 280.33 830.3 300.29 830.3 260.37"/><polygon class="cls-5" points="830.3 300.29 864.87 320.25 830.3 340.22 830.3 300.29"/><polygon class="cls-5" points="830.3 340.22 864.87 360.18 830.3 380.14 830.3 340.22"/><polygon class="cls-5" points="830.3 380.14 864.87 400.1 830.3 420.06 830.3 380.14"/><polygon class="cls-5" points="830.3 420.06 864.87 440.03 830.3 459.99 830.3 420.06"/><polygon class="cls-5" points="830.3 459.99 864.87 479.95 830.3 499.91 830.3 459.99"/><polygon class="cls-5" points="830.3 499.91 864.87 519.87 830.3 539.84 830.3 499.91"/><polygon class="cls-5" points="864.87 0.87 899.45 20.83 864.87 40.79 864.87 0.87"/><polygon class="cls-5" points="864.87 40.79 899.45 60.75 864.87 80.71 864.87 40.79"/><polygon class="cls-5" points="864.87 80.71 899.45 100.67 864.87 120.64 864.87 80.71"/><polygon class="cls-5" points="864.87 120.64 899.45 140.6 864.87 160.56 864.87 120.64"/><polygon class="cls-5" points="864.87 160.56 899.45 180.52 864.87 200.48 864.87 160.56"/><polygon class="cls-5" points="864.87 200.48 899.45 220.45 864.87 240.41 864.87 200.48"/><polygon class="cls-5" points="864.87 240.41 899.45 260.37 864.87 280.33 864.87 240.41"/><polygon class="cls-5" points="864.87 280.33 899.45 300.29 864.87 320.25 864.87 280.33"/><polygon class="cls-5" points="864.87 320.25 899.45 340.22 864.87 360.18 864.87 320.25"/><polygon class="cls-5" points="864.87 360.18 899.45 380.14 864.87 400.1 864.87 360.18"/><polygon class="cls-5" points="864.87 400.1 899.45 420.06 864.87 440.03 864.87 400.1"/><polygon class="cls-5" points="864.87 440.03 899.45 459.99 864.87 479.95 864.87 440.03"/><polygon class="cls-5" points="864.87 479.95 899.45 499.91 864.87 519.87 864.87 479.95"/></g></g></g></svg>