<?xml version="1.0" encoding="utf-8"?>
<!-- Generator: Adobe Illustrator 24.1.1, SVG Export Plug-In . SVG Version: 6.00 Build 0)  -->
<svg version="1.1" id="Layer_1" xmlns="http://www.w3.org/2000/svg" xmlns:xlink="http://www.w3.org/1999/xlink" x="0px" y="0px"
	 viewBox="0 0 56.3 19.4" style="enable-background:new 0 0 56.3 19.4;" xml:space="preserve">
<style type="text/css">
	.st0{fill:#FFFFFF;stroke:#231F20;stroke-miterlimit:10;}
	.st1{fill:#231F20;}
</style>
<g id="Layer_2_1_">
	<g id="Layer_1-2">
		<rect x="0.5" y="0.6" class="st0" width="55.3" height="18.2"/>
		<rect x="2" y="2" class="st0" width="52.3" height="15.4"/>
		<path class="st1" d="M13.1,3.7l2,2v6.9c0,0.2,0,0.5-0.1,0.7c-0.1,0.2-0.2,0.4-0.4,0.5c-0.2,0.2-0.3,0.3-0.5,0.4
			c-0.2,0.1-0.4,0.1-0.7,0.1c-0.4,0-0.8-0.2-1.2-0.5l-1.8-1.8c0.3,0.2,0.6,0.3,1,0.3c0.2,0,0.4,0,0.6-0.1c0.2-0.1,0.4-0.2,0.5-0.4
			c0.2-0.2,0.3-0.3,0.4-0.5s0.1-0.4,0.1-0.7V3.7z"/>
		<path class="st1" d="M19.9,8.3l-2-2h0.4c0-0.3,0.1-0.6,0.2-0.8C18.6,5.2,18.8,5,19,4.8c0.2-0.2,0.4-0.3,0.7-0.4
			c0.3-0.1,0.5-0.2,0.8-0.2c0.3,0,0.6,0,0.8,0.1s0.5,0.2,0.7,0.4s0.3,0.4,0.5,0.6c0.1,0.2,0.2,0.5,0.2,0.8h-0.2
			c-0.3,0-0.6,0.1-0.8,0.2S21.2,6.6,21,6.8c-0.2,0.2-0.3,0.4-0.5,0.7c-0.1,0.3-0.2,0.5-0.2,0.8H19.9z M25,13.8v0.4H20l-2-2h5.1v-0.4
			L25,13.8z M23.1,6.3c0-0.3-0.1-0.6-0.2-0.9s-0.3-0.6-0.5-0.8l1.8,1.8c0.2,0.2,0.4,0.5,0.6,0.9C25,7.6,25,8,25,8.3
			c0,0.4-0.1,0.7-0.3,1c-0.2,0.3-0.4,0.6-0.6,0.9c-0.3,0.3-0.5,0.6-0.8,0.8c-0.3,0.3-0.6,0.5-0.8,0.8h-4l3.7-3.7
			c0.2-0.2,0.4-0.5,0.5-0.8C23,7,23.1,6.7,23.1,6.3z"/>
		<path class="st1" d="M34.6,13.8v0.4h-4.4l-2-2h4.4v-0.4L34.6,13.8z M28.7,11.9V3.7l2,2v6.2H28.7z"/>
		<path class="st1" d="M43.2,8v2c-0.6,0-1.2,0-1.7,0s-1.1,0-1.7,0v4.3h-0.4l-2-2h0.4V8H43.2z M39.8,7.6h-2V3.7l2,2V7.6z M43.7,3.7
			l2,2v8.5h-0.4l-2-2h0.4V3.7z"/>
	</g>
</g>
</svg>
