<svg xmlns="http://www.w3.org/2000/svg" viewBox="0 0 56.27 19.24"><defs><style>.cls-1{fill:#fff;stroke:#231f20;stroke-miterlimit:10;}.cls-2{fill:#231f20;}</style></defs><g id="Layer_2" data-name="Layer 2"><g id="Layer_1-2" data-name="Layer 1"><g id="Layer_2-2" data-name="Layer 2"><g id="Layer_1-2-2" data-name="Layer 1-2"><rect class="cls-1" x="0.5" y="0.5" width="55.27" height="18.24"/><rect class="cls-1" x="1.96" y="1.92" width="52.35" height="15.42"/><path class="cls-2" d="M13.06,3.62l2,2v6.89a1.57,1.57,0,0,1-.13.65,1.54,1.54,0,0,1-.37.53A1.87,1.87,0,0,1,14,14a1.59,1.59,0,0,1-.66.13,1.61,1.61,0,0,1-1.15-.5l-1.81-1.82a1.56,1.56,0,0,0,1.61.22,2,2,0,0,0,.54-.36,1.75,1.75,0,0,0,.38-.54,1.52,1.52,0,0,0,.15-.66Z"/><path class="cls-2" d="M19.9,8.15l-2-2h.43a2.08,2.08,0,0,1,.17-.82A2,2,0,0,1,19,4.69a2,2,0,0,1,.67-.45,2.14,2.14,0,0,1,.84-.17,2.16,2.16,0,0,1,.81.15,2,2,0,0,1,.66.41,1.9,1.9,0,0,1,.46.63,2.36,2.36,0,0,1,.2.78h-.16a2.08,2.08,0,0,0-.82.17,2.09,2.09,0,0,0-1.12,1.12,2.08,2.08,0,0,0-.17.82ZM25,13.74v.41H20l-2-2h5.09v-.42Zm-2-7.53a2.52,2.52,0,0,0-.17-.94,2.61,2.61,0,0,0-.49-.8l1.85,1.85a2.79,2.79,0,0,1,.58.85,2.45,2.45,0,0,1,.22,1,2.09,2.09,0,0,1-.26,1,5,5,0,0,1-.64.91,10.42,10.42,0,0,1-.81.82c-.29.27-.55.53-.8.79h-4L22.3,8a2.42,2.42,0,0,0,.55-.82A2.36,2.36,0,0,0,23.05,6.21Z"/><path class="cls-2" d="M34.62,13.72v.43H30.24l-2-2h4.38v-.43Zm-5.91-2V3.62l2,2v6.16Z"/><path class="cls-2" d="M43.25,7.93v2H39.78v4.25h-.42l-2-2h.42V7.93Zm-3.47-.44h-2V3.62l2,2Zm3.89-3.87,2,2v8.54h-.42l-2-2h.42Z"/></g></g></g></g></svg>